Coordinates
version=1
nRows=6
nColumns=38
inDegrees=yes

Units are S.I. units (second, meters, Newtons, ...)
Angles are in degrees.

endheader
time	pelvis_tilt	pelvis_list	pelvis_rotation	pelvis_tx	pelvis_ty	pelvis_tz	hip_flexion_r	hip_adduction_r	hip_rotation_r	knee_angle_r	ankle_angle_r	subtalar_angle_r	mtp_angle_r	hip_flexion_l	hip_adduction_l	hip_rotation_l	knee_angle_l	ankle_angle_l	subtalar_angle_l	mtp_angle_l	lumbar_extension	lumbar_bending	lumbar_rotation	arm_flex_r	arm_add_r	arm_rot_r	elbow_flex_r	pro_sup_r	wrist_flex_r	wrist_dev_r	arm_flex_l	arm_add_l	arm_rot_l	elbow_flex_l	pro_sup_l	wrist_flex_l	wrist_dev_l
      2.22000000	     -1.09252377	     -4.44566214	      4.43845556	      0.86252695	      0.96091746	     -0.23292501	     10.73102530	      8.15969115	     -2.84452210	    -18.37422950	      8.62909863	     -3.66104244	      0.00000000	     21.04674866	     -0.41501765	      4.19699148	    -64.25441155	     -0.89751964	    -15.24564010	      0.00000000	    -10.18782008	      5.76370188	     -6.87144440	      1.72555793	     -7.99307596	     24.28657999	     48.40997184	     43.56102432	      0.00000000	      0.00000000	      5.88729385	     -4.54514969	     30.75317564	     44.30953132	     43.56102432	      0.00000000	      0.00000000
      2.23000000	     -0.99148820	     -4.14690587	      4.17846388	      0.87276624	      0.96200716	     -0.23214349	      9.76001506	      8.00810988	     -2.40375160	    -18.08178930	      9.05246314	     -3.58581382	      0.00000000	     22.19184288	     -0.27030374	      3.63806461	    -63.47851568	     -0.49682457	    -15.66451679	      0.00000000	    -10.41891627	      5.33428347	     -6.41771356	      2.50689636	     -7.96758612	     24.41515902	     48.72659086	     43.56940271	      0.00000000	      0.00000000	      5.59650567	     -4.78021425	     30.67821685	     44.18484331	     43.56940271	      0.00000000	      0.00000000
      2.24000000	     -0.87212207	     -3.83528575	      3.87204722	      0.88295454	      0.96295528	     -0.23139293	      8.75392328	      7.83057241	     -1.91937573	    -17.75252474	      9.49507486	     -3.47400169	      0.00000000	     23.13120470	     -0.08434559	      3.11813748	    -62.34049173	     -0.10857570	    -16.08729338	      0.00000000	    -10.67183899	      4.90917017	     -5.97674825	      3.22401006	     -7.97171194	     24.57466916	     49.10336797	     43.57681306	      0.00000000	      0.00000000	      5.28100144	     -5.02519545	     30.59443886	     44.05741588	     43.57681306	      0.00000000	      0.00000000
      2.25000000	     -0.61547358	     -3.51753843	      3.58420606	      0.89333678	      0.96392632	     -0.23064990	      7.46545072	      7.71427480	     -1.05488027	    -17.18887240	      9.77400436	     -4.08568227	      0.00000000	     23.81791356	      0.08290148	      2.57965901	    -60.89991974	      0.19350513	    -16.51582866	      0.00000000	    -11.08961155	      4.46121086	     -5.49576911	      4.37335402	     -9.06610208	     28.33026070	     50.07962189	     43.70411260	      0.00000000	      0.00000000	      4.72628870	     -5.11881889	     29.39265365	     44.31765916	     43.70411260	      0.00000000	      0.00000000
      2.26000000	     -0.52619363	     -3.27751291	      3.27895311	      0.90340991	      0.96441896	     -0.22996044	      6.55474751	      7.55489741	     -0.71600169	    -16.94768110	     10.31743298	     -3.80435737	      0.00000000	     24.69599660	      0.16085539	      2.10126032	    -59.30562893	      0.37433229	    -16.61142181	      0.00000000	    -11.31289403	      4.11949042	     -5.07744460	      5.19819584	     -9.02908608	     28.33627603	     50.26559784	     43.71080344	      0.00000000	      0.00000000	      4.42870333	     -5.35751144	     29.31937547	     44.21209523	     43.71080344	      0.00000000	      0.00000000
      2.27000000	     -0.34050488	     -2.96476042	      2.98222804	      0.91374525	      0.96478400	     -0.22939061	      5.61119701	      7.31915638	     -0.30078828	    -16.93001378	     10.92114865	     -3.60768337	      0.00000000	     25.33673291	      0.29588736	      1.58868487	    -57.39552393	      0.68577018	    -16.53692068	      0.00000000	    -11.60467138	      3.70639813	     -4.62316306	      5.98813907	     -8.98890352	     28.46299947	     50.52650198	     43.71989296	      0.00000000	      0.00000000	      4.06348995	     -5.59750854	     29.20594870	     44.09410519	     43.71989296	      0.00000000	      0.00000000
